<svg xmlns="http://www.w3.org/2000/svg" height="512" width="512"><path d="M466.445 195.965h-.02C458.704 86.613 367.282 0 256 0S53.297 86.613 45.574 195.965h-.02C20.438 195.965 0 216.398 0 241.52v79c0 25.12 20.438 45.558 45.555 45.558h89.48V210.965C135.035 144.265 189.301 90 256 90s120.965 54.266 120.965 120.965v155.11h31.41v16.034c0 38.524-31.344 69.868-69.867 69.868h-15.043c-6.192-17.473-22.875-30.024-42.445-30.024h-50.04c-24.828 0-45.023 20.195-45.023 45.024 0 24.824 20.195 45.023 45.023 45.023h50.04c19.57 0 36.253-12.55 42.445-30.023h15.043c55.066 0 99.867-44.801 99.867-99.868v-16.03h28.07c25.118 0 45.555-20.438 45.555-45.56v-79c0-25.12-20.438-45.554-45.555-45.554zM281.02 482h-50.04c-8.285 0-15.023-6.738-15.023-15.023 0-8.286 6.738-15.024 15.023-15.024h50.04c8.285 0 15.023 6.738 15.023 15.024 0 8.285-6.738 15.023-15.023 15.023zM105.035 336.074h-59.48c-8.578 0-15.555-6.976-15.555-15.554v-79c0-8.579 6.98-15.555 15.555-15.555h59.48zM256 60c-78.18 0-142.664 59.738-150.219 135.965H75.664C83.312 103.172 161.27 30 256 30s172.688 73.172 180.336 165.965h-30.117C398.664 119.738 334.179 60 256 60zm226 260.52c0 8.578-6.98 15.558-15.555 15.558h-59.48V225.965h59.48c8.578 0 15.555 6.976 15.555 15.555zm0 0" data-original="#000000" class="active-path" data-old_color="#000000" fill="#FFF"/></svg>