<svg id="Layer_1" data-name="Layer 1" xmlns="http://www.w3.org/2000/svg" viewBox="0 0 32 26.33"><defs><style>.cls-1{fill:#787878}</style></defs><path class="cls-1" d="M11.78 16.44H12a6.2 6.2 0 004.65-1.93c2.54-2.74 2.11-7.44 2.07-7.89-.17-3.37-1.83-5-3.2-5.73A7.68 7.68 0 0012 0h-.11A7.54 7.54 0 008.3.87c-1.38.75-3.07 2.36-3.24 5.75 0 .45-.47 5.15 2.07 7.89a6.17 6.17 0 004.65 1.93zm-5-9.66c.22-4.53 3.57-5 5-5h.08c1.78 0 4.81.74 5 5s.47 4.34-1.63 6.6a4.4 4.4 0 01-3.4 1.35h-.06a4.38 4.38 0 01-3.39-1.35c-2.09-2.25-1.64-6.56-1.64-6.6zm0 0M11.89 16.49C5.32 16.5 0 20.28 0 25.06v.61c0 .37.41.66.91.66h22c.5 0 .91-.29.91-.66v-.41c-.06-4.78-5.37-8.76-11.93-8.77zM21.94 25H1.83v-.2c0-4 4.5-7 10.06-7s10.05 2.91 10.05 7zM20.95 7.22H32v.97H20.95zM20.95 11.13H32v.97H20.95zM20.95 15.22h9.06v.97h-9.06z"/></svg>