<svg data-name="Layer 1" xmlns="http://www.w3.org/2000/svg" viewBox="0 0 60 60"><path d="M30 0a30 30 0 1030 30A30 30 0 0030 0zm0 3.92a26.05 26.05 0 0111.49 2.66L36 12.21a18.52 18.52 0 00-12.67.22L17.74 7A26 26 0 0130 3.92zM7 42.26A26.06 26.06 0 016.83 18l5.5 5.58a18.53 18.53 0 00.1 13zm23 13.82a25.9 25.9 0 01-12-2.91l5.58-5.5a18.56 18.56 0 0012.53.08l5.5 5.58A25.9 25.9 0 0130 56.08zm0-11.75A14.33 14.33 0 1144.33 30 14.32 14.32 0 0130 44.33zM47.79 36a18.8 18.8 0 001-6 18.58 18.58 0 00-1-6.14l5.58-5.51a26.1 26.1 0 01.09 23.14z" fill="#777"/></svg>