<svg id="Layer_1" data-name="Layer 1" xmlns="http://www.w3.org/2000/svg" viewBox="0 0 30 22"><defs><style>.cls-1{fill:#f1a600}</style></defs><path class="cls-1" d="M22.95 9.24l4.79 1.6-3.2 3.2-1.59-4.8z"/><path class="cls-1" d="M27 9.38l1 .36.29-1.09L29.8 3a.61.61 0 00-.59-.77H8.42a.61.61 0 00-.59.77l3 10.55a.62.62 0 00.6.45h11.9L23 12.91l-1.83-5.45zm.29-1.09l-7.9-2.61 2.4 7.23h-10L9.1 3.39h19.44z"/><rect class="cls-1" x=".18" width="5.42" height="1.13" rx=".47" ry=".47"/><path class="cls-1" d="M.52 2.26h5.67a.33.33 0 01.32.25l.25.88L10 14.92a.33.33 0 00.32.25h16.23a.34.34 0 01.34.34V16a.34.34 0 01-.34.34H9.46a.33.33 0 01-.33-.25l-.25-.88L5.66 3.64a.34.34 0 00-.33-.25H.52a.34.34 0 01-.34-.34V2.6a.34.34 0 01.34-.34zM10.72 21.3zM10 19.59a2.41 2.41 0 002.4 2.4 2.36 2.36 0 001.69-.71 2.39 2.39 0 00.7-1.69 2.42 2.42 0 00-2.4-2.41 2.48 2.48 0 00-1.7.71 2.41 2.41 0 00-.7 1.7zm1.12 0a1.32 1.32 0 01.38-.91 1.29 1.29 0 012.19.91 1.28 1.28 0 01-1.28 1.28 1.28 1.28 0 01-.91-.37 1.3 1.3 0 01-.36-.91zM22.02 21.3zM21.31 19.59A2.42 2.42 0 0023.72 22a2.42 2.42 0 002.4-2.4 2.38 2.38 0 00-.71-1.7 2.44 2.44 0 00-1.69-.71 2.44 2.44 0 00-1.69.71 2.38 2.38 0 00-.71 1.7zm1.13 0a1.31 1.31 0 01.37-.91 1.3 1.3 0 011.82 0 1.31 1.31 0 01.37.91 1.28 1.28 0 11-2.56 0z"/></svg>