<svg xmlns="http://www.w3.org/2000/svg" height="512" width="512"><path d="M257.762 207.047H197.71v90.05h90.062v-30h-60.062v-30.05h60.05V147H197.7v30h60.063zm0 0M407.86 297.11V146.987h-30v60.059h-30.051v-60.059h-30v90.059h60.05v60.062zm0 0M419.316 113.902l-21.21-21.215L426.41 64.38l21.215 21.215zm0 0M340.11 13.754l27.714 11.48-15.32 36.989-27.715-11.48zm0 0M240.992 0h30v40.031h-30zm0 0M171.883 13.75l15.32 36.988-27.719 11.48-15.32-36.984zm0 0M85.57 64.375l28.309 28.309-21.215 21.21L64.355 85.59zm0 0M426.41 447.645l-28.308-28.305 21.214-21.215 28.309 28.309zm0 0M486.77 367.824l-36.989-15.32 11.48-27.719 36.989 15.32zm0 0M471.969 241.008H512v30h-40.031zm0 0M486.781 144.191l11.48 27.72-36.984 15.32-11.484-27.72zm0 0" data-original="#000000" class="active-path" data-old_color="#000000" fill="#FFF"/><path d="M228.348 396.066c-25.7-9.242-49.192-24.129-68.743-43.68s-34.437-43.042-43.68-68.741h31.723V147H0v73.824c0 77.774 30.29 150.89 85.281 205.887 54.996 54.992 128.114 85.281 205.887 85.281h73.824V364.344H228.348zm30 39.282v-41.004h76.644v87.648h-43.824c-69.758 0-135.344-27.164-184.672-76.496C57.168 356.168 30 290.582 30 220.824V177h87.648v76.645H76.645l4.543 18.566c9.37 38.277 29.148 73.336 57.203 101.39 28.054 28.051 63.113 47.833 101.39 57.204zm0 0" data-original="#000000" class="active-path" data-old_color="#000000" fill="#FFF"/></svg>