<svg xmlns="http://www.w3.org/2000/svg" height="512" viewBox="0 -30 512 511" width="512"><path d="M512 72.637C512 32.859 479.64.5 439.863.5H72.137C32.359.5 0 32.86 0 72.637v89.289h86.137L30.023 289.027v163.426h451.954V289.027l-56.114-127.101H512zm-144.172 59.289h-30.047v-30.047h30.047zm-60.047 0H204.22v-30.047H307.78zm-133.562 0h-30.047v-30.047h30.047zm277.758 163.426v127.101H60.023V295.352l58.907-133.426h274.14zM482 131.926h-84.172V71.879H114.172v60.047H30v-59.29C30 49.403 48.902 30.5 72.137 30.5h367.726C463.098 30.5 482 49.402 482 72.637zm0 0" data-original="#000000" class="active-path" data-old_color="#000000" fill="#FFF"/><path d="M180.941 217.14h30.024v30H180.94zm0 0M240.988 217.14h30.024v30h-30.024zm0 0M301.035 217.14h30.024v30h-30.024zm0 0M180.941 277.188h30.024v30H180.94zm0 0M240.988 277.188h30.024v30h-30.024zm0 0M301.035 277.188h30.024v30h-30.024zm0 0M180.941 337.238h30.024v30H180.94zm0 0M240.988 337.238h30.024v30h-30.024zm0 0M301.035 337.238h30.024v30h-30.024zm0 0" data-original="#000000" class="active-path" data-old_color="#000000" fill="#FFF"/></svg>