<svg xmlns="http://www.w3.org/2000/svg" height="512" viewBox="0 -80 512 512" width="512"><path d="M160.031 104c-4.422 0-8-3.574-8-8V73.055c0-4.422 3.578-8 8-8 4.426 0 8 3.578 8 8V96c0 4.426-3.574 8-8 8zm0 0M272.031 104c-4.422 0-8-3.574-8-8V67.992c0-4.426 3.578-8 8-8 4.426 0 8 3.574 8 8V96c0 4.426-3.574 8-8 8zm0 0" data-original="#000000" class="active-path" data-old_color="#000000" fill="#FFF"/><path d="M272.031 75.992c-4.422 0-8-3.578-8-8C264.031 39.32 240.695 16 212.016 16c-28.664 0-51.985 23.32-51.985 51.992 0 4.422-3.574 8-8 8-4.422 0-8-3.578-8-8C144.031 30.496 174.535 0 212.016 0c37.504 0 68.015 30.504 68.015 67.992 0 4.422-3.574 8-8 8zm0 0" data-original="#000000" class="active-path" data-old_color="#000000" fill="#FFF"/><path d="M272.04 86.96a8 8 0 01-6.36-3.136c-15.442-20.168-19.649-18.511-35.313-12.304-15.015 5.96-37.719 14.96-79.582 8.335a7.995 7.995 0 01-6.648-9.152c.68-4.36 4.785-7.367 9.152-6.648 37.527 5.922 56.992-1.782 71.191-7.414 19.297-7.649 32.215-10.871 53.903 17.449a7.995 7.995 0 01-1.488 11.215 7.895 7.895 0 01-4.856 1.656zm0 0" data-original="#000000" class="active-path" data-old_color="#000000" fill="#FFF"/><path d="M240.023 67.809a7.98 7.98 0 01-3.52-.825c-3.96-1.945-5.593-6.746-3.648-10.703l16-32.57c1.946-3.977 6.711-5.598 10.711-3.656 3.961 1.945 5.594 6.746 3.649 10.707l-16 32.566a8 8 0 01-7.192 4.48zm0 0M152.04 207.96c-4.423 0-8-3.577-8-8 0-17.64 14.35-31.991 32-31.991 4.425 0 8 3.574 8 8 0 4.422-3.575 8-8 8-8.825 0-16 7.168-16 15.992 0 4.422-3.575 8-8 8zm0 0" data-original="#000000" class="active-path" data-old_color="#000000" fill="#FFF"/><path d="M192.031 184.016H176.04c-4.422 0-8-3.575-8-8 0-4.422 3.578-8 8-8h15.992c4.426 0 8 3.578 8 8 0 4.425-3.574 8-8 8zm0 0M152.04 232c-4.423 0-8-3.574-8-8v-24.04c0-4.425 3.577-8 8-8 4.425 0 8 3.575 8 8V224c0 4.426-3.575 8-8 8zm0 0M280.023 207.96c-4.421 0-8-3.577-8-8 0-8.823-7.175-15.991-16-15.991-4.421 0-8-3.578-8-8 0-4.426 3.579-8 8-8 17.649 0 32 14.351 32 31.992 0 4.422-3.574 8-8 8zm0 0" data-original="#000000" class="active-path" data-old_color="#000000" fill="#FFF"/><path d="M256.023 184.016h-15.992c-4.422 0-8-3.575-8-8 0-4.422 3.578-8 8-8h15.992c4.426 0 8 3.578 8 8 0 4.425-3.574 8-8 8zm0 0M280.023 232c-4.421 0-8-3.574-8-8v-24.04c0-4.425 3.579-8 8-8 4.426 0 8 3.575 8 8V224c0 4.426-3.574 8-8 8zm0 0M192.031 184.016c-4.422 0-8-3.575-8-8v-29.473c0-4.422 3.578-8 8-8 4.426 0 8 3.578 8 8v29.473c0 4.425-3.574 8-8 8zm0 0" data-original="#000000" class="active-path" data-old_color="#000000" fill="#FFF"/><path d="M240.031 183.96c-4.422 0-8-3.577-8-8v-29.417c0-4.422 3.578-8 8-8 4.426 0 8 3.578 8 8v29.418c0 4.422-3.574 8-8 8zm0 0" data-original="#000000" class="active-path" data-old_color="#000000" fill="#FFF"/><path d="M216.031 159.938c-35.289 0-64-28.708-64-63.977 0-4.426 3.578-8 8-8 4.426 0 8 3.574 8 8 0 26.453 21.528 47.977 48 47.977s48-21.524 48-47.977c0-4.426 3.578-8 8-8 4.426 0 8 3.574 8 8 0 35.27-28.71 63.977-64 63.977zm0 0M200.04 191.96a8.012 8.012 0 01-7.169-4.425 8 8 0 013.578-10.734l16-8c3.95-1.961 8.758-.375 10.735 3.574 1.976 3.953.375 8.762-3.575 10.738l-16 8a7.962 7.962 0 01-3.57.848zm0 0M232.031 191.96a7.99 7.99 0 01-5.656-2.343 7.99 7.99 0 010-11.312l8-8a7.99 7.99 0 0111.313 0 7.99 7.99 0 010 11.312l-8 8a7.984 7.984 0 01-5.657 2.344zm0 0" data-original="#000000" class="active-path" data-old_color="#000000" fill="#FFF"/><path d="M200.031 191.96a7.99 7.99 0 01-5.656-2.343l-8-8a7.99 7.99 0 010-11.312 7.99 7.99 0 0111.313 0l8 8a7.99 7.99 0 010 11.312 7.984 7.984 0 01-5.657 2.344zm0 0M232.023 191.96a8.04 8.04 0 01-3.566-.839l-16-8a8.004 8.004 0 01-3.578-10.738c1.984-3.95 6.777-5.535 10.738-3.574l16 8a8.003 8.003 0 013.574 10.734 8.01 8.01 0 01-7.168 4.418zm0 0M448.023 72.008c-4.421 0-8-3.574-8-8 0-8.832-7.183-16.008-16.015-16.008-4.422 0-8-3.574-8-8s3.578-8 8-8c17.656 0 32.015 14.36 32.015 32.008 0 4.426-3.574 8-8 8zm0 0" data-original="#000000" class="active-path" data-old_color="#000000" fill="#FFF"/><path d="M424.008 48c-4.422 0-8-3.574-8-8V16c0-4.426 3.578-8 8-8 4.426 0 8 3.574 8 8v24c0 4.426-3.574 8-8 8zm0 0M336.008 72c-4.422 0-8-3.574-8-8 0-30.871 25.129-56 56-56 4.426 0 8 3.574 8 8s-3.574 8-8 8c-22.055 0-40 17.945-40 40 0 4.426-3.574 8-8 8zm0 0" data-original="#000000" class="active-path" data-old_color="#000000" fill="#FFF"/><path d="M424.008 24h-40c-4.422 0-8-3.574-8-8s3.578-8 8-8h40c4.426 0 8 3.574 8 8s-3.574 8-8 8zm0 0M392.008 144c-44.434 0-62.414-34.938-63.16-36.426a8 8 0 013.578-10.734c3.933-1.953 8.734-.383 10.719 3.543.597 1.16 14.566 27.617 48.863 27.617 34.656 0 48.703-27.305 48.84-27.574 1.976-3.953 6.785-5.547 10.738-3.578 3.95 1.976 5.55 6.785 3.574 10.738-.734 1.477-18.719 36.414-63.152 36.414zm0 0" data-original="#000000" class="active-path" data-old_color="#000000" fill="#FFF"/><path d="M336.008 112c-4.422 0-8-3.574-8-8V63.969c0-4.426 3.578-8 8-8 4.426 0 8 3.574 8 8V104c0 4.426-3.574 8-8 8zm0 0M448.008 112c-4.422 0-8-3.574-8-8V63.969c0-4.426 3.578-8 8-8 4.426 0 8 3.574 8 8V104c0 4.426-3.574 8-8 8zm0 0M304.016 191.96c-4.422 0-8-3.577-8-8 0-17.64 14.351-31.991 32-31.991 4.425 0 8 3.574 8 8 0 4.422-3.575 8-8 8-8.825 0-16 7.168-16 15.992 0 4.422-3.575 8-8 8zm0 0" data-original="#000000" class="active-path" data-old_color="#000000" fill="#FFF"/><path d="M360 168.016h-31.984c-4.422 0-8-3.575-8-8 0-4.422 3.578-8 8-8H360c4.426 0 8 3.578 8 8 0 4.425-3.574 8-8 8zm0 0M304.016 352c-4.422 0-8-3.574-8-8V183.96c0-4.425 3.578-8 8-8 4.425 0 8 3.575 8 8V344c0 4.426-3.575 8-8 8zm0 0M480 191.96c-4.426 0-8-3.577-8-8 0-8.823-7.176-15.991-16-15.991-4.426 0-8-3.578-8-8 0-4.426 3.574-8 8-8 17.648 0 32 14.351 32 31.992 0 4.422-3.574 8-8 8zm0 0" data-original="#000000" class="active-path" data-old_color="#000000" fill="#FFF"/><path d="M456 168.016h-48a7.99 7.99 0 01-8-8c0-4.422 3.574-8 8-8h48c4.426 0 8 3.578 8 8 0 4.425-3.574 8-8 8zm0 0M480 352a7.99 7.99 0 01-8-8V183.96c0-4.425 3.574-8 8-8s8 3.575 8 8V344c0 4.426-3.574 8-8 8zm0 0" data-original="#000000" class="active-path" data-old_color="#000000" fill="#FFF"/><path d="M392.008 167.938c-35.29 0-64-28.708-64-63.977 0-4.426 3.578-8 8-8 4.426 0 8 3.574 8 8 0 26.453 21.527 47.977 48 47.977 26.472 0 48-21.524 48-47.977 0-4.426 3.578-8 8-8 4.426 0 8 3.574 8 8 0 35.27-28.711 63.977-64 63.977zm0 0" data-original="#000000" class="active-path" data-old_color="#000000" fill="#FFF"/><path d="M408 167.96h-48c-4.426 0-8-3.577-8-8 0-4.425 3.574-8 8-8h48c4.426 0 8 3.575 8 8 0 4.423-3.574 8-8 8zm0 0M304.016 256H8c-4.426 0-8-3.574-8-8s3.574-8 8-8h296.016c4.425 0 8 3.574 8 8s-3.575 8-8 8zm0 0M504 255.992h-24c-4.426 0-8-3.578-8-8 0-4.426 3.574-8 8-8h24c4.426 0 8 3.574 8 8 0 4.422-3.574 8-8 8zm0 0" data-original="#000000" class="active-path" data-old_color="#000000" fill="#FFF"/><path d="M504 255.992c-4.426 0-8-3.578-8-8v-24c0-4.426 3.574-8 8-8s8 3.574 8 8v24c0 4.422-3.574 8-8 8zm0 0" data-original="#000000" class="active-path" data-old_color="#000000" fill="#FFF"/><path d="M504 231.992h-24c-4.426 0-8-3.578-8-8 0-4.426 3.574-8 8-8h24c4.426 0 8 3.574 8 8 0 4.422-3.574 8-8 8zm0 0M304.016 232H8c-4.426 0-8-3.574-8-8s3.574-8 8-8h296.016c4.425 0 8 3.574 8 8s-3.575 8-8 8zm0 0" data-original="#000000" class="active-path" data-old_color="#000000" fill="#FFF"/><path d="M8 256a7.99 7.99 0 01-8-8v-24c0-4.426 3.574-8 8-8s8 3.574 8 8v24c0 4.426-3.574 8-8 8zm0 0M32 352a7.99 7.99 0 01-8-8v-88c0-4.426 3.574-8 8-8s8 3.574 8 8v88c0 4.426-3.574 8-8 8zm0 0M440.008 232h-96c-4.422 0-8-3.574-8-8s3.578-8 8-8h96c4.426 0 8 3.574 8 8s-3.574 8-8 8zm0 0M440.008 280h-96c-4.422 0-8-3.574-8-8s3.578-8 8-8h96c4.426 0 8 3.574 8 8s-3.574 8-8 8zm0 0M440.008 328h-96c-4.422 0-8-3.574-8-8s3.578-8 8-8h96c4.426 0 8 3.574 8 8s-3.574 8-8 8zm0 0M304.016 288H72c-4.426 0-8-3.574-8-8s3.574-8 8-8h232.016c4.425 0 8 3.574 8 8s-3.575 8-8 8zm0 0" data-original="#000000" class="active-path" data-old_color="#000000" fill="#FFF"/><path d="M64 352a7.99 7.99 0 01-8-8v-56.008c0-4.426 3.574-8 8-8s8 3.574 8 8V344c0 4.426-3.574 8-8 8zm0 0" data-original="#000000" class="active-path" data-old_color="#000000" fill="#FFF"/><path d="M64 296c-4.426 0-8-3.574-8-8s3.574-8 8-8c0-4.426 3.574-8 8-8s8 3.574 8 8c0 8.824-7.176 16-16 16zm0 0M120.098 96.121H24.16c-4.426 0-8-3.578-8-8 0-4.426 3.574-8 8-8h95.938c4.422 0 8 3.574 8 8a8 8 0 01-8 8zm0 0" data-original="#000000" class="active-path" data-old_color="#000000" fill="#FFF"/><path d="M72.137 208.113c-4.426 0-8-3.578-8-8V72.13c0-4.426 3.574-8 8-8 4.422 0 8 3.574 8 8v127.984c0 4.414-3.586 8-8 8zm0 0" data-original="#000000" class="active-path" data-old_color="#000000" fill="#FFF"/><path d="M112.113 208.113H32.16c-4.426 0-8-3.578-8-8 0-4.425 3.574-8 8-8h79.953c4.422 0 8 3.575 8 8a8 8 0 01-8 8zm0 0M120.105 168.113c-13.234 0-24-10.77-24-24 0-4.425 3.575-8 8-8 4.422 0 8 3.575 8 8 0 4.414 3.582 8 8 8 4.415 0 8-3.586 8-8 0-4.425 3.575-8 8-8 4.422 0 8 3.575 8 8 0 13.23-10.77 24-24 24zm0 0" data-original="#000000" class="active-path" data-old_color="#000000" fill="#FFF"/><path d="M104.105 144.105a7.993 7.993 0 01-2.53-.417c-4.184-1.391-6.454-5.918-5.055-10.122l15.992-47.98a7.974 7.974 0 0110.12-5.059 7.997 7.997 0 015.055 10.121l-15.992 47.985a8.015 8.015 0 01-7.59 5.472zm0 0" data-original="#000000" class="active-path" data-old_color="#000000" fill="#FFF"/><path d="M136.09 144.105a7.992 7.992 0 01-7.586-5.472l-15.992-47.985c-1.399-4.191.863-8.726 5.054-10.12a7.971 7.971 0 0110.121 5.058l15.993 47.98c1.398 4.196-.864 8.73-5.055 10.121a8.052 8.052 0 01-2.535.418zm0 0M24.16 168.113c-13.23 0-24-10.77-24-24 0-4.425 3.574-8 8-8s8 3.575 8 8c0 4.414 3.582 8 8 8 4.414 0 8-3.586 8-8 0-4.425 3.574-8 8-8s8 3.575 8 8c0 13.23-10.77 24-24 24zm0 0" data-original="#000000" class="active-path" data-old_color="#000000" fill="#FFF"/><path d="M8.16 144.105a7.97 7.97 0 01-2.527-.417c-4.184-1.391-6.457-5.918-5.059-10.122l15.992-47.98a7.974 7.974 0 0110.122-5.059 7.997 7.997 0 015.054 10.121l-15.988 47.985a8.027 8.027 0 01-7.594 5.472zm0 0" data-original="#000000" class="active-path" data-old_color="#000000" fill="#FFF"/><path d="M40.145 144.105a7.996 7.996 0 01-7.586-5.472l-16-47.985c-1.399-4.191.867-8.726 5.058-10.12a7.965 7.965 0 0110.117 5.058l15.993 47.98c1.402 4.196-.864 8.73-5.055 10.121a7.97 7.97 0 01-2.527.418zm0 0" data-original="#000000" class="active-path" data-old_color="#000000" fill="#FFF"/><path d="M40.145 144.105H8.16c-4.426 0-8-3.578-8-8 0-4.425 3.574-8 8-8h31.985c4.421 0 8 3.575 8 8a8 8 0 01-8 8zm0 0M136.09 144.105h-31.985c-4.425 0-8-3.578-8-8 0-4.425 3.575-8 8-8h31.985c4.422 0 8 3.575 8 8a8 8 0 01-8 8zm0 0" data-original="#000000" class="active-path" data-old_color="#000000" fill="#FFF"/><path d="M40.16 152.113a7.995 7.995 0 01-8-7.984l-.015-8.008a7.99 7.99 0 017.984-8.016h.016a7.995 7.995 0 018 7.985l.015 8.008a7.993 7.993 0 01-7.984 8.015h-.016zm0 0M136.098 152.113a7.995 7.995 0 01-8-7.984l-.02-8.008a7.993 7.993 0 017.984-8.016h.016a7.992 7.992 0 018 7.985l.02 8.008c.007 4.422-3.625 8.3-8 8.015zm0 0M8.137 152.113a7.995 7.995 0 01-8-7.984L.12 136.12a7.99 7.99 0 017.984-8.016h.016a7.995 7.995 0 018 7.985l.016 8.008a7.995 7.995 0 01-7.985 8.015h-.015zm0 0M104.121 152.113c-4.426 0-8-3.578-8-8v-8.008c0-4.425 3.574-8 8-8 4.422 0 8 3.575 8 8v8.008c0 4.414-3.586 8-8 8zm0 0" data-original="#000000" class="active-path" data-old_color="#000000" fill="#FFF"/></svg>