<svg xmlns="http://www.w3.org/2000/svg" height="512" viewBox="-69 1 511 511.999" width="512"><path d="M339.945 274.422h-19.722V36.203C320.223 16.243 303.984 0 284.02 0H102.262C87.754 0 75.395 6.207 66.914 15.684 16.871 73.125 5.426 80.37 2.793 93.887c-3.988 12.812-1.395-3.325-2.152 381.91C.64 495.757 16.883 512 36.844 512H284.02c19.964 0 36.203-16.242 36.203-36.203v-19.594h14.965c21.523 0 39.035-17.512 39.035-39.039V308.7c0-18.898-15.375-34.277-34.278-34.277zM86.777 24.812V63.48c0 12.305-10.011 22.32-22.32 22.32H31.125c53.656-59.534 50.754-57.632 55.652-60.987zm213.446 450.985c0 8.933-7.27 16.203-16.203 16.203H36.844c-8.934 0-16.203-7.27-16.203-16.203.035-384.516-.082-367.781.093-369.996h43.723c23.336 0 42.32-18.985 42.32-42.32V20H284.02c8.937 0 16.203 7.27 16.203 16.203V327.84H183.5c-12.902 0-23.398 10.496-23.398 23.398v81.567c0 12.902 10.496 23.398 23.398 23.398h116.723zm54-58.633c0 10.5-8.54 19.04-19.035 19.04H183.5a3.4 3.4 0 01-3.398-3.4v-81.566a3.403 3.403 0 013.398-3.398c170.566 0 160.555 1.32 170.723-3.73zm0-105.266c0 8.793-7.149 15.942-15.938 15.942h-18.062v-33.418h19.722c7.871 0 14.278 6.406 14.278 14.281zm0 0" data-original="#000000" class="active-path" data-old_color="#000000" fill="#DC3545"/><path d="M250.828 169.54h-.027c-5.52 0-9.985 4.476-9.985 10 0 5.523 4.489 10 10.012 10s10-4.477 10-10c0-5.524-4.48-10-10-10zm0 0M67.816 189.54h143.012c5.52 0 10-4.477 10-10 0-5.524-4.48-10-10-10H67.816c-5.523 0-10 4.476-10 10 0 5.523 4.477 10 10 10zm0 0M67.816 245.504h183.012c5.52 0 10-4.477 10-10 0-5.524-4.48-10-10-10H67.816c-5.523 0-10 4.476-10 10 0 5.523 4.477 10 10 10zm0 0M260.828 291.465c0-5.524-4.48-10-10-10H67.816c-5.523 0-10 4.476-10 10 0 5.523 4.477 10 10 10h183.012c5.52 0 10-4.477 10-10zm0 0" data-original="#000000" class="active-path" data-old_color="#000000" fill="#DC3545"/></svg>