<svg xmlns="http://www.w3.org/2000/svg" height="512" viewBox="0 0 496 496" width="512"><path d="M384 144v-17.473c9.29-3.312 16-12.113 16-22.527 0-13.23-10.77-24-24-24-4.406 0-8-3.594-8-8s3.594-8 8-8 8 3.594 8 8h16c0-10.414-6.71-19.215-16-22.527V32h-16v17.473c-9.29 3.312-16 12.113-16 22.527 0 13.23 10.77 24 24 24 4.406 0 8 3.594 8 8s-3.594 8-8 8-8-3.594-8-8h-16c0 10.414 6.71 19.215 16 22.527V144zm0 0" data-original="#000000" class="active-path" data-old_color="#000000" fill="#FFF"/><path d="M472 256v-25.824c0-16.582-10.434-31.633-25.96-37.457L408 178.457v-8.57c32.727-12.84 56-44.664 56-81.887 0-48.52-39.48-88-88-88s-88 39.48-88 88c0 37.223 23.273 69.047 56 81.887v8.57l-38.04 14.27c-15.526 5.816-25.96 20.867-25.96 37.449V256h-16V128H160c-22.055 0-40 17.945-40 40 0 13.129 6.45 24.703 16.246 32C126.45 207.297 120 218.871 120 232c0 9.04 3.129 17.297 8.207 24H104V128H24v128c-13.23 0-24 10.77-24 24v16c0 13.23 10.77 24 24 24v176h448V320c13.23 0 24-10.77 24-24v-16c0-13.23-10.77-24-24-24zm-104.047-37.398l-25.695 10.277-5.13-30.758 12.071-4.52zm34.848-25l12.062 4.527-5.129 30.758-25.695-10.278zM304 88c0-39.695 32.305-72 72-72s72 32.305 72 72-32.305 72-72 72-72-32.305-72-72zm72 88c5.473 0 10.8-.566 16-1.527v6.863l-16 21.336-16-21.336v-6.863c5.2.96 10.527 1.527 16 1.527zm-80 54.176c0-9.953 6.258-18.977 15.574-22.473l10.29-3.855 7.878 47.273L376 232.617l46.258 18.496 7.879-47.273 10.289 3.855C449.742 211.2 456 220.223 456 230.175V256H296zM248 256h-16v-48h16zm-48-64v-48h16v48zm16 16v48h-16v-48zm32-16h-16v-48h16zm-112-24c0-13.23 10.77-24 24-24h24v48h-24c-13.23 0-24-10.77-24-24zm0 64c0-13.23 10.77-24 24-24h24v48h-24c-13.23 0-24-10.77-24-24zm-48-8H40v-16h48zm0-80v48H40v-48zm-48 96h48v16H40zm416 240H40V320h416zm24-184c0 4.406-3.594 8-8 8H24c-4.406 0-8-3.594-8-8v-16c0-4.406 3.594-8 8-8h448c4.406 0 8 3.594 8 8zm0 0" data-original="#000000" class="active-path" data-old_color="#000000" fill="#FFF"/><path d="M312 448h128v16H312zm0 0M280 416h160v16H280zm0 0M56 336h128v16H56zm0 0M56 368h160v16H56zm0 0M56 160h16v16H56zm0 0M152 224h16v16h-16zm0 0M152 160h16v16h-16zm0 0" data-original="#000000" class="active-path" data-old_color="#000000" fill="#FFF"/></svg>