<svg xmlns="http://www.w3.org/2000/svg" viewBox="0 0 338.4 338.4" fill="#ff4343"><path d="M233.8 224.8H106.52a6.08 6.08 0 000 12H233.8a6.08 6.08 0 100-12zM233.8 101.76H106.52a6.08 6.08 0 000 12H233.8a6.08 6.08 0 100-12zM233.8 194.04H106.52a6.08 6.08 0 000 12H233.8a6.08 6.08 0 100-12z"/><path d="M231.32 1.88a6.078 6.078 0 00-4.36-1.84H67.76V0C51.93.022 39.102 12.85 39.08 28.68v281.04c.022 15.83 12.85 28.658 28.68 28.68h202.88c15.83-.022 28.658-12.85 28.68-28.68V69.88l-68-68zm1.72 18.96l47.4 47.4H245.8c-7.029-.044-12.716-5.731-12.76-12.76V20.84zm56 288.88c-.044 9.083-7.397 16.436-16.48 16.48H67.76c-9.083-.044-16.436-7.397-16.48-16.48V28.68c.044-9.083 7.397-16.436 16.48-16.48h153.08v43.08c.022 13.776 11.184 24.938 24.96 24.96h43.24v229.48z"/><path d="M233.8 132.52H106.52a6.08 6.08 0 100 12H233.8a6.08 6.08 0 100-12zM233.8 163.28H106.52a6.08 6.08 0 000 12H233.8a6.08 6.08 0 100-12z"/></svg>