<svg xmlns="http://www.w3.org/2000/svg" viewBox="-51 0 512 512" width="512" height="512"><path d="M130 206c-5.469 0-9.922 4.398-10 9.86v.14c0 5.52 4.48 10 10 10s10-4.48 10-10v-.14c-.078-5.462-4.531-9.86-10-9.86zm0 0" data-original="#000000" class="active-path" data-old_color="#000000" fill="#DC3545"/><path d="M130 0C65.398 0 0 17.176 0 50v312c0 32.824 65.398 50 130 50 1.95 0 3.883-.02 5.797-.047C153.41 471.031 207.859 512 270 512c77.195 0 140-62.805 140-140s-62.805-140-140-140c-3.355 0-6.723.133-10.086.371.008-6.566.05-105.672.055-118.555.011-.273.031-.546.031-.816 0-.195-.02-.383-.027-.574L260 50.004V50c0-32.824-65.398-50-130-50zm6.785 328.934c-2.297.043-4.566.066-6.785.066-31.004 0-60.016-3.98-81.688-11.203C25.919 310.332 20 302.238 20 299v-35.059C44.285 278.5 87.313 286 130 286c10.355 0 20.652-.438 30.617-1.285-10.508 13.183-18.64 28.219-23.832 44.219zm47.2-67.371C167.487 264.457 148.894 266 130 266c-31.004 0-60.016-3.98-81.688-11.203C25.919 247.332 20 239.238 20 236v-31.973c5.586 3.328 11.555 5.993 17.684 8.235 16.312 6.117 46.187 11.468 52.386 11.468 5.012 0 9.336-3.757 9.922-8.851.637-5.488-3.3-10.45-8.785-11.082-3.2-.524-38.457-4.055-59.953-16.348-8.563-4.863-9.61-7.793-11.145-10.57-.261-1.414-.011 1.387-.109-35.938C44.285 155.5 87.313 163 130 163c32.684 0 63.656-4.25 87.21-11.965 9.462-3.097 17.005-6.484 22.849-9.976-.024 36.695-.008 35.507-.024 35.605-.402 1.875-1.988 3.695-3.355 5.04-.102.038-15.653 16.144-67.766 22.077l-.121.016c-5.488.633-9.422 5.594-8.79 11.082.59 5.094 4.911 8.851 9.923 8.851 11.988 0 51.215-8.449 70.101-19.656l-.015 31.176c-20.313 4.46-39.551 13.457-56.028 26.313zm56.046-84.844c0-.008.004-.016.004-.024-.008.032-.004.024-.004.024zm.04-63.375c-.344 3.37-6.868 11.41-29.087 18.687C189.387 139.105 160.625 143 130 143c-31.004 0-60.016-3.98-81.688-11.203C25.919 124.332 20 116.238 20 113V77.941C44.285 92.5 87.313 100 130 100c42.68 0 85.8-7.5 110.086-22.05zM48.312 31.204C69.983 23.98 98.995 20 130 20s60.016 3.98 81.688 11.203C234.082 38.668 240 46.762 240 50s-5.918 11.332-28.313 18.797C190.017 76.02 161.005 80 130 80s-60.016-3.98-81.688-11.203C25.919 61.332 20 53.238 20 50s5.918-11.332 28.313-18.797zm0 349.593C25.918 373.332 20 365.238 20 362v-35.059C44.285 341.5 87.313 349 130 349c.625 0 1.262-.008 1.89-.008-1.25 7.57-1.89 15.27-1.89 23.008 0 6.71.477 13.398 1.422 19.992-.477.004-.945.008-1.422.008-31.004 0-60.016-3.98-81.688-11.203zM390 372c0 66.168-53.832 120-120 120-56.043 0-104.09-38.05-116.844-92.531a.553.553 0 01-.015-.078A120.567 120.567 0 01150 372c-.001-10.364 1.315-20.634 3.913-30.524C167.297 290.437 213.871 252 270 252c66.168 0 120 53.832 120 120zm0 0" data-original="#000000" class="active-path" data-old_color="#000000" fill="#DC3545"/><path d="M240 352c0 16.543 13.457 30 30 30 5.516 0 10 4.484 10 10s-4.484 10-10 10c-4.273 0-8.887-2.688-12.984-7.563-3.555-4.23-9.864-4.777-14.09-1.222-4.23 3.555-4.774 9.863-1.219 14.09 5.344 6.36 11.633 10.793 18.293 13.023V432c0 5.523 4.477 10 10 10s10-4.477 10-10v-11.719c11.64-4.129 20-15.246 20-28.281 0-16.543-13.457-30-30-30-5.516 0-10-4.484-10-10s4.484-10 10-10c3.543 0 7.281 1.809 10.816 5.227 3.97 3.84 10.301 3.734 14.141-.23 3.84-3.974 3.734-10.302-.234-14.142-5.075-4.914-10.153-7.69-14.723-9.207V312c0-5.523-4.477-10-10-10s-10 4.477-10 10v11.719c-11.64 4.129-20 15.246-20 28.281zm0 0" data-original="#000000" class="active-path" data-old_color="#000000" fill="#DC3545"/></svg>