<svg xmlns="http://www.w3.org/2000/svg" viewBox="0 0 479.091 479.091" width="512" height="512"><path d="M202.1 85.818l-13.961-6.157a87.571 87.571 0 00-2.086-6.703l7.758-13.359a8.009 8.009 0 00.063-7.914 106.203 106.203 0 00-13.609-19.024 7.943 7.943 0 00-7.75-2.461l-14.687 3.36a87.335 87.335 0 00-5.359-3.953l-1.422-15.547a8.002 8.002 0 00-4.609-6.523A101.567 101.567 0 00124.524.178a7.958 7.958 0 00-7.703 2.609l-10.25 11.899h-6.156l-10.252-11.9A7.946 7.946 0 0082.46.177a101.676 101.676 0 00-21.914 7.359 8.002 8.002 0 00-4.609 6.531l-1.422 15.539a89.625 89.625 0 00-5.359 3.953L34.467 30.2a7.936 7.936 0 00-7.75 2.461 106.032 106.032 0 00-13.609 19.024 8.009 8.009 0 00.063 7.914l7.758 13.359a87.71 87.71 0 00-2.086 6.703L4.881 85.817a8 8 0 00-4.766 7.32v21.734a7.997 7.997 0 004.766 7.32l13.961 6.157a87.571 87.571 0 002.086 6.703L13.17 148.41a8.009 8.009 0 00-.063 7.914 106.203 106.203 0 0013.609 19.024 7.967 7.967 0 007.75 2.461l14.687-3.36a87.335 87.335 0 005.359 3.953l1.422 15.547a8.002 8.002 0 004.609 6.523 101.567 101.567 0 0021.914 7.359 7.975 7.975 0 007.703-2.609l10.25-11.898h6.156l10.25 11.898a7.986 7.986 0 007.704 2.609 101.676 101.676 0 0021.914-7.359 8.002 8.002 0 004.609-6.531l1.422-15.539a89.625 89.625 0 005.359-3.953l14.688 3.359a7.955 7.955 0 007.75-2.461c5.224-5.82 9.788-12.2 13.609-19.024a8.009 8.009 0 00-.063-7.914l-7.758-13.359a87.71 87.71 0 002.086-6.703l13.961-6.156a8 8 0 004.766-7.32V93.138a7.991 7.991 0 00-4.763-7.32zm-11.233 23.843l-12.773 5.633a8.012 8.012 0 00-4.563 5.531 73.528 73.528 0 01-3.703 11.867 8.008 8.008 0 00.469 7.078l7.32 12.617a90.71 90.71 0 01-6.258 8.742l-13.828-3.164a7.93 7.93 0 00-7.086 1.797 73.002 73.002 0 01-9.813 7.258 7.99 7.99 0 00-3.75 6.07l-1.344 14.68a88.488 88.488 0 01-9.781 3.32l-9.461-10.984a8.005 8.005 0 00-6.063-2.781H96.748a8.008 8.008 0 00-6.063 2.781l-9.461 10.984a88.617 88.617 0 01-9.789-3.32l-1.344-14.695a8.007 8.007 0 00-3.75-6.062 72.11 72.11 0 01-9.805-7.25 7.937 7.937 0 00-7.086-1.797l-13.828 3.164a90.883 90.883 0 01-6.258-8.742l7.32-12.617a8.01 8.01 0 00.469-7.078 73.528 73.528 0 01-3.703-11.867 8.01 8.01 0 00-4.563-5.531l-12.773-5.633V98.349l12.774-5.633a8.012 8.012 0 004.563-5.531 73.528 73.528 0 013.703-11.867 8.008 8.008 0 00-.469-7.078l-7.32-12.617a90.7 90.7 0 016.257-8.742l13.828 3.164a7.961 7.961 0 007.086-1.797 73.002 73.002 0 019.813-7.258 7.99 7.99 0 003.75-6.07l1.344-14.68a88.488 88.488 0 019.781-3.32l9.461 10.984a8.005 8.005 0 006.063 2.781h13.484a8.011 8.011 0 006.063-2.781l9.461-10.984a88.617 88.617 0 019.789 3.32l1.344 14.695a8.007 8.007 0 003.75 6.062 72.11 72.11 0 019.805 7.25 7.955 7.955 0 007.086 1.797l13.828-3.164a90.71 90.71 0 016.258 8.742l-7.32 12.617a8.01 8.01 0 00-.469 7.078 73.528 73.528 0 013.703 11.867 8.01 8.01 0 004.563 5.531l12.773 5.633v11.313z" data-original="#000000" class="active-path" data-old_color="#000000" fill="#FFF"/><path d="M103.491 48.005c-30.928 0-56 25.072-56 56 .037 30.912 25.088 55.963 56 56 30.928 0 56-25.072 56-56s-25.072-56-56-56zm0 96c-22.091 0-40-17.909-40-40 .026-22.081 17.919-39.974 40-40 22.091 0 40 17.909 40 40s-17.909 40-40 40zM474.202 71.63l-11.047-4.875a75.661 75.661 0 00-1.398-4.477l6.156-10.609a8.024 8.024 0 00.063-7.922 90.42 90.42 0 00-11.516-16.086 7.946 7.946 0 00-7.742-2.461l-11.625 2.656a80.923 80.923 0 00-3.516-2.594l-1.125-12.328a7.986 7.986 0 00-4.609-6.531A86.611 86.611 0 00409.288.176a7.948 7.948 0 00-7.703 2.609l-8.141 9.453h-3.906l-8.141-9.453a7.937 7.937 0 00-7.703-2.609 86.575 86.575 0 00-18.555 6.227 7.986 7.986 0 00-4.609 6.531l-1.125 12.328a76.986 76.986 0 00-3.516 2.594L334.264 25.2a7.962 7.962 0 00-7.742 2.461 89.82 89.82 0 00-11.508 16.094 8.009 8.009 0 00.062 7.914l6.149 10.601c-.5 1.445-.966 2.94-1.398 4.484L308.78 71.63a7.992 7.992 0 00-4.773 7.32v18.109a7.992 7.992 0 004.773 7.32l11.047 4.875c.43 1.547.898 3.031 1.398 4.477l-6.156 10.61a8.024 8.024 0 00-.063 7.922 90.369 90.369 0 0011.516 16.086 7.955 7.955 0 007.75 2.461l11.609-2.664a73.759 73.759 0 003.523 2.602l1.125 12.328a7.987 7.987 0 004.609 6.531 86.611 86.611 0 0018.555 6.227 7.97 7.97 0 007.703-2.609l8.141-9.453h3.906l8.141 9.453a7.986 7.986 0 007.704 2.609 86.556 86.556 0 0018.555-6.227 7.986 7.986 0 004.609-6.531l1.125-12.328a76.986 76.986 0 003.516-2.594l11.625 2.656a7.957 7.957 0 007.742-2.461 90.434 90.434 0 0011.516-16.086 8.024 8.024 0 00-.063-7.922l-6.156-10.609c.5-1.445.969-2.93 1.398-4.477l11.047-4.875a7.992 7.992 0 004.773-7.32V78.95a7.992 7.992 0 00-4.773-7.32zm-11.227 20.219l-9.852 4.344a7.971 7.971 0 00-4.57 5.547 59.736 59.736 0 01-3.016 9.648 8.025 8.025 0 00.469 7.086l5.695 9.813c-1.289 2-2.68 3.948-4.172 5.844l-10.719-2.453a7.916 7.916 0 00-7.07 1.797 59.216 59.216 0 01-7.984 5.898 8.01 8.01 0 00-3.766 6.078l-1.039 11.422a69.873 69.873 0 01-6.453 2.188l-7.328-8.508a8.004 8.004 0 00-6.062-2.781h-11.234a8.008 8.008 0 00-6.062 2.781l-7.328 8.508a69.576 69.576 0 01-6.453-2.188l-1.039-11.422a8.006 8.006 0 00-3.766-6.078 58.707 58.707 0 01-7.977-5.898 8.048 8.048 0 00-7.086-1.805l-10.711 2.453a73.611 73.611 0 01-4.172-5.836l5.695-9.813a8.028 8.028 0 00.469-7.086 59.767 59.767 0 01-3.016-9.648 7.976 7.976 0 00-4.57-5.547l-9.852-4.344v-7.687l9.852-4.344a7.971 7.971 0 004.57-5.547 60.18 60.18 0 013.016-9.664 8.008 8.008 0 00-.469-7.078l-5.688-9.813a74.394 74.394 0 014.164-5.836l10.719 2.453a7.956 7.956 0 007.07-1.797 59.216 59.216 0 017.984-5.898 8.01 8.01 0 003.766-6.078l1.039-11.422a69.873 69.873 0 016.453-2.188l7.328 8.508a8.005 8.005 0 006.063 2.781h11.234a8.006 8.006 0 006.063-2.781l7.328-8.508a69.576 69.576 0 016.453 2.188l1.039 11.422a8.006 8.006 0 003.766 6.078 59.216 59.216 0 017.984 5.898 7.942 7.942 0 007.07 1.797l10.719-2.453a74.109 74.109 0 014.172 5.844l-5.695 9.813a8.028 8.028 0 00-.469 7.086 59.767 59.767 0 013.016 9.648 7.976 7.976 0 004.57 5.547l9.852 4.344v7.687z" data-original="#000000" class="active-path" data-old_color="#000000" fill="#FFF"/><path d="M391.491 48.005c-22.091 0-40 17.909-40 40 .026 22.081 17.919 39.974 40 40 22.091 0 40-17.909 40-40s-17.909-40-40-40zm0 64c-13.255 0-24-10.745-24-24 .014-13.249 10.751-23.986 24-24 13.255 0 24 10.745 24 24s-10.746 24-24 24zM472.225 338.536l-11.594-2.438a104.17 104.17 0 00-1.617-6.008l8.891-7.969a7.995 7.995 0 002.023-9.094 120.214 120.214 0 00-14.695-25.172 8.03 8.03 0 00-8.891-2.789l-11.18 3.672a106.433 106.433 0 00-4.406-4.406l3.672-11.172a7.998 7.998 0 00-2.781-8.883 119.725 119.725 0 00-25.18-14.711 8.04 8.04 0 00-9.094 2.023l-7.969 8.898c-1.992-.609-4-1.148-6.008-1.625l-2.438-11.594a8.002 8.002 0 00-7.828-6.352h-27.28a8.001 8.001 0 00-7.828 6.352l-2.438 11.594a104.17 104.17 0 00-6.008 1.617l-7.969-8.891a8.035 8.035 0 00-9.094-2.023 120.214 120.214 0 00-25.172 14.695 8.003 8.003 0 00-2.789 8.891l3.672 11.18a106.433 106.433 0 00-4.406 4.406l-11.172-3.672a8.048 8.048 0 00-8.883 2.781 119.725 119.725 0 00-14.711 25.18 7.995 7.995 0 002.023 9.094l8.898 7.969c-.609 1.992-1.148 4-1.625 6.008l-11.594 2.438a8.002 8.002 0 00-6.352 7.828v27.281a8.001 8.001 0 006.352 7.828l11.594 2.438a104.17 104.17 0 001.617 6.008l-8.891 7.969a7.995 7.995 0 00-2.023 9.094 120.214 120.214 0 0014.695 25.172 8.03 8.03 0 008.891 2.789l11.18-3.672a106.433 106.433 0 004.406 4.406l-3.672 11.172a7.998 7.998 0 002.781 8.883 119.725 119.725 0 0025.18 14.711 7.974 7.974 0 009.094-2.023l7.969-8.898c1.992.609 4 1.148 6.008 1.625l2.438 11.594a8.002 8.002 0 007.828 6.352h27.281a8.001 8.001 0 007.828-6.352l2.438-11.594a104.17 104.17 0 006.008-1.617l7.969 8.891a7.975 7.975 0 009.094 2.023 120.214 120.214 0 0025.172-14.695 8.004 8.004 0 002.789-8.891l-3.672-11.18a106.433 106.433 0 004.406-4.406l11.172 3.672a8.024 8.024 0 008.883-2.781 119.725 119.725 0 0014.711-25.18 7.995 7.995 0 00-2.023-9.094l-8.898-7.969c.609-1.992 1.148-4 1.625-6.008l11.594-2.438a8.002 8.002 0 006.352-7.828v-27.281a8.004 8.004 0 00-6.353-7.828zm-9.649 28.617l-10.351 2.18a8 8 0 00-6.227 6.406 87.019 87.019 0 01-3.758 13.946 7.995 7.995 0 002.195 8.664l8.391 7.516a105.105 105.105 0 01-7.07 12.047l-10.57-3.477a8.031 8.031 0 00-8.609 2.43 87.372 87.372 0 01-10.234 10.242 8.016 8.016 0 00-2.422 8.602l3.477 10.562a104.44 104.44 0 01-12.047 7.07l-7.523-8.391a8.039 8.039 0 00-8.672-2.195 86.156 86.156 0 01-13.93 3.758 8 8 0 00-6.406 6.227l-2.18 10.352h-14.297l-2.18-10.352a8 8 0 00-6.406-6.227 87.019 87.019 0 01-13.946-3.758h.001a8.058 8.058 0 00-8.664 2.195l-7.516 8.391a105.105 105.105 0 01-12.047-7.07l3.477-10.57a8.014 8.014 0 00-2.43-8.609 87.372 87.372 0 01-10.242-10.234 8.037 8.037 0 00-8.602-2.422l-10.563 3.477a104.44 104.44 0 01-7.07-12.047l8.391-7.523a8.006 8.006 0 002.195-8.672 86.156 86.156 0 01-3.758-13.93 8 8 0 00-6.227-6.406l-10.352-2.18v-14.297l10.352-2.18a8 8 0 006.227-6.406 87.019 87.019 0 013.758-13.946 7.995 7.995 0 00-2.195-8.664l-8.391-7.515a105.105 105.105 0 017.07-12.047l10.57 3.477a8.031 8.031 0 008.609-2.43 87.372 87.372 0 0110.234-10.242 8.016 8.016 0 002.422-8.602l-3.477-10.562a104.44 104.44 0 0112.047-7.07l7.523 8.391a8.027 8.027 0 008.672 2.195 86.156 86.156 0 0113.93-3.758 8 8 0 006.406-6.227l2.18-10.352h14.297l2.18 10.352a8 8 0 006.406 6.227 86.979 86.979 0 0113.945 3.758 8.008 8.008 0 008.664-2.195l7.516-8.391a105.105 105.105 0 0112.047 7.07l-3.477 10.57a8.014 8.014 0 002.43 8.609 87.372 87.372 0 0110.242 10.234 8.07 8.07 0 008.602 2.422l10.562-3.477a104.44 104.44 0 017.07 12.047l-8.391 7.523a8.006 8.006 0 00-2.195 8.672 86.156 86.156 0 013.758 13.93 8 8 0 006.227 6.406l10.352 2.18v14.296z" data-original="#000000" class="active-path" data-old_color="#000000" fill="#FFF"/><path d="M359.491 288.005c-39.764 0-72 32.235-72 72 0 39.764 32.236 72 72 72 39.747-.043 71.957-32.253 72-72 0-39.765-32.236-72-72-72zm0 128c-30.912-.037-55.963-25.088-56-56 0-30.928 25.072-56 56-56s56 25.072 56 56-25.072 56-56 56zM223.491 88.005h64v16h-64zM222.847 348.861a7.995 7.995 0 00-4.208-4.208l-56-24a7.995 7.995 0 00-11.148 7.351v16h-96v-128h-16v136a7.995 7.995 0 007.991 8h104.009v16a7.995 7.995 0 007.989 8h.011a7.886 7.886 0 003.148-.648l56-24a7.995 7.995 0 004.208-10.495zm-55.356 15.011v-23.734l27.688 11.867-27.688 11.867z" data-original="#000000" class="active-path" data-old_color="#000000" fill="#FFF"/><path d="M385.342 330.88l-34.391 41.273-17.805-17.804-11.312 11.312 24 24a7.975 7.975 0 005.656 2.344c.117 0 .242 0 .359-.008a8.01 8.01 0 005.789-2.867l40-48-12.296-10.25z" data-original="#000000" class="active-path" data-old_color="#000000" fill="#FFF"/></svg>