<svg xmlns="http://www.w3.org/2000/svg" height="512" viewBox="0 0 512.54 512.54" width="512"><path d="M450.27 379.542h-29.536v-30.009c0-5.523-4.477-10-10-10s-10 4.477-10 10v30.009h-29.536c-5.523 0-10 4.477-10 10s4.477 10 10 10h29.536v30.009c0 5.523 4.477 10 10 10s10-4.477 10-10v-30.009h29.536c5.523 0 10-4.477 10-10s-4.477-10-10-10z" data-original="#000000" class="active-path" data-old_color="#000000" fill="#DC3545"/><path d="M482.151 318.124c-19.077-19.077-44.44-29.583-71.418-29.583-13.63 0-26.847 2.686-39.05 7.799v-176.7c0-7.314-2.848-14.191-8.019-19.361l-92.25-92.261a27.313 27.313 0 00-7.399-5.244l-.01-.005c-.128-.062-.256-.125-.385-.186a9.832 9.832 0 00-.727-.321A27.455 27.455 0 00252.044 0H29.794C13.836 0 .854 12.982.854 28.94V483.6c0 15.958 12.982 28.94 28.94 28.94h312.95c15.279 0 27.97-11.946 28.892-27.197.012-.201.018-.402.018-.603v-2.072a101.335 101.335 0 0039.08 7.826c25.864 0 51.728-9.845 71.418-29.535 39.379-39.379 39.379-103.456-.001-142.835zM337.542 102.439H271.46a2.215 2.215 0 01-2.212-2.213V34.137zm14.111 381.944c-.404 4.594-4.271 8.157-8.91 8.157H29.794c-4.93 0-8.94-4.01-8.94-8.94V28.94c0-4.93 4.01-8.94 8.94-8.94h219.454v80.226c0 12.248 9.964 22.213 22.212 22.213h80.224v185.143a102.234 102.234 0 00-12.368 10.541c-39.38 39.38-39.38 103.456 0 142.836a101.196 101.196 0 0012.338 10.503v12.921zm116.356-37.566c-31.581 31.582-82.97 31.582-114.551 0-31.582-31.582-31.582-82.969 0-114.551 15.299-15.299 35.64-23.724 57.275-23.724s41.977 8.425 57.275 23.724c31.583 31.582 31.583 82.969.001 114.551z" data-original="#000000" class="active-path" data-old_color="#000000" fill="#DC3545"/><path d="M71.32 159.38h139.414c5.523 0 10-4.477 10-10s-4.477-10-10-10H71.32c-5.523 0-10 4.477-10 10s4.477 10 10 10zM245.505 319.298H71.32c-5.523 0-10 4.477-10 10s4.477 10 10 10h174.185c5.523 0 10-4.477 10-10s-4.477-10-10-10zM245.505 379.271H71.32c-5.523 0-10 4.477-10 10s4.477 10 10 10h174.185c5.523 0 10-4.477 10-10s-4.477-10-10-10zM301.734 259.326H71.32c-5.523 0-10 4.477-10 10s4.477 10 10 10h230.414c5.523 0 10-4.477 10-10s-4.478-10-10-10zM70.32 220h180.414c5.523 0 10-4.477 10-10s-4.477-10-10-10H70.32c-5.523 0-10 4.477-10 10s4.477 10 10 10z" data-original="#000000" class="active-path" data-old_color="#000000" fill="#DC3545"/><circle cx="300.5" cy="210" r="10.005" data-original="#000000" class="active-path" data-old_color="#000000" fill="#DC3545"/></svg>