<svg xmlns="http://www.w3.org/2000/svg" height="512" viewBox="0 0 512.54 512.54" width="512"><path d="M482.128 318.124c-29.812-29.812-73.777-37.048-110.468-21.721V119.64c0-7.314-2.848-14.19-8.019-19.361l-92.25-92.261a27.326 27.326 0 00-7.398-5.243l-.016-.008c-.126-.061-.251-.123-.378-.182a10.362 10.362 0 00-.73-.323A27.458 27.458 0 00252.02 0H29.77C13.813 0 .83 12.982.83 28.94V483.6c0 15.958 12.982 28.94 28.94 28.94h312.95c15.28 0 27.971-11.946 28.892-27.197a9.34 9.34 0 00.019-.603v-2.073a101.335 101.335 0 0039.08 7.826c25.864 0 51.728-9.845 71.418-29.534 19.076-19.077 29.582-44.44 29.582-71.418s-10.507-52.341-29.583-71.417zm-144.61-215.685h-66.082a2.216 2.216 0 01-2.213-2.213V34.137zm14.112 381.944c-.403 4.594-4.271 8.157-8.91 8.157H29.77c-4.93 0-8.94-4.01-8.94-8.94V28.94c0-4.93 4.01-8.94 8.94-8.94h219.454v80.226c0 12.248 9.965 22.213 22.213 22.213h80.224v185.16a101.239 101.239 0 00-12.368 10.525c-19.076 19.077-29.582 44.44-29.582 71.418s10.506 52.341 29.582 71.418a101.196 101.196 0 0012.338 10.503v12.92zm116.355-37.566c-31.582 31.582-82.969 31.582-114.551 0-15.299-15.299-23.725-35.64-23.725-57.275s8.426-41.977 23.725-57.275c15.791-15.791 36.533-23.687 57.275-23.687s41.484 7.896 57.275 23.687c15.299 15.299 23.725 35.64 23.725 57.275s-8.425 41.976-23.724 57.275z" data-original="#000000" class="active-path" data-old_color="#000000" fill="#DC3545"/><path d="M446.232 360.715l-46.919 39.892-23.938-25.021c-3.817-3.992-10.148-4.13-14.139-.313-3.99 3.818-4.131 10.148-.313 14.139l30.456 31.835a9.977 9.977 0 007.229 3.087 9.975 9.975 0 006.475-2.381l54.104-46c4.208-3.578 4.719-9.889 1.141-14.096-3.576-4.209-9.89-4.719-14.096-1.142zM71.296 159.38H210.71c5.523 0 10-4.477 10-10s-4.477-10-10-10H71.296c-5.523 0-10 4.477-10 10s4.477 10 10 10zM245.481 319.298H71.296c-5.523 0-10 4.477-10 10s4.477 10 10 10h174.185c5.523 0 10-4.477 10-10s-4.477-10-10-10zM245.481 379.271H71.296c-5.523 0-10 4.477-10 10s4.477 10 10 10h174.185c5.523 0 10-4.477 10-10s-4.477-10-10-10zM301.71 259.326H71.296c-5.523 0-10 4.477-10 10s4.477 10 10 10H301.71c5.522 0 10-4.477 10-10s-4.478-10-10-10zM70.296 220H250.71c5.523 0 10-4.477 10-10s-4.477-10-10-10H70.296c-5.523 0-10 4.477-10 10s4.477 10 10 10z" data-original="#000000" class="active-path" data-old_color="#000000" fill="#DC3545"/><circle cx="300.477" cy="210" r="10.005" data-original="#000000" class="active-path" data-old_color="#000000" fill="#DC3545"/></svg>