<svg width="15" height="14" xmlns="http://www.w3.org/2000/svg"><path d="M13.17 3.183V.77a.734.734 0 00-.367-.64.737.737 0 00-.74-.007 17.262 17.262 0 01-7.2 2.162c-.02.002-2.326.012-2.326.012-.58 0-1.058.437-1.124.999H.94a.94.94 0 00-.94.94V6.3c0 .518.422.94.94.94h.473c.048.404.309.743.667.902l1.685 4.648c.105.29.382.483.69.483h1.69a.736.736 0 00.691-.986L5.39 8.297c2.358.244 4.601.954 6.675 2.114a.744.744 0 00.74-.007.734.734 0 00.365-.64V7.351A2.105 2.105 0 0015 5.267c0-1.067-.8-1.95-1.83-2.084zM1.404 6.515H.94A.215.215 0 01.725 6.3V4.235c0-.118.096-.215.215-.215h.465v2.495zm.966.963a.408.408 0 01-.241-.372V3.43c0-.225.182-.407.407-.407H4.51v4.492L2.51 7.512a.38.38 0 01-.14-.034zm3.784 5.057c.001.003.002.005-.001.01-.003.004-.006.004-.009.004h-1.69a.01.01 0 01-.01-.007L2.887 8.238h1.711l1.558 4.297zm6.29-2.77c0 .005 0 .009-.008.014-.01.005-.015.002-.02 0a17.965 17.965 0 00-7.183-2.226V2.98A17.97 17.97 0 0012.417.756c.005-.003.01-.006.02 0 .008.004.008.008.008.014v8.994zm.724-3.148v-2.7a1.38 1.38 0 011.106 1.35 1.38 1.38 0 01-1.106 1.35z" fill="#d71920" fill-rule="nonzero"/></svg>