<svg xmlns="http://www.w3.org/2000/svg" width="512" height="512"><path d="M334.007 224.333c5.522 0 10-4.477 10-10V70c0-16.542-13.458-30-30-30h-24v-8c0-17.645-14.355-32-32-32s-32 14.355-32 32v8h-22v-8c0-17.645-14.355-32-32-32s-32 14.355-32 32v8h-22v-8c0-17.645-14.355-32-32-32s-32 14.355-32 32v8h-24c-16.542 0-30 13.458-30 30v340.076c0 2.652 1.054 5.196 2.929 7.071l91.924 91.924a10.003 10.003 0 007.071 2.929h212.076c16.542 0 30-13.458 30-30v-19c0-5.522-4.478-10-10-10s-10 4.477-10 10v19c0 5.514-4.486 10-10 10H111.931v-61.924c0-16.542-13.458-30-30-30H20.007V138h304v76.333c0 5.523 4.478 10 10 10zM81.931 420.076c5.513 0 10 4.486 10 10v47.781l-57.782-57.781h47.782zM246.007 32c0-6.617 5.383-12 12-12s12 5.383 12 12v8h-24v-8zm-86 0c0-6.617 5.383-12 12-12s12 5.383 12 12v8h-24v-8zm-86 0c0-6.617 5.383-12 12-12s12 5.383 12 12v8h-24v-8zm-54 86V70c0-5.514 4.486-10 10-10h68v8c0 6.617-5.383 12-12 12-5.522 0-10 4.477-10 10s4.478 10 10 10c17.645 0 32-14.355 32-32v-8h66v8c0 6.617-5.383 12-12 12-5.522 0-10 4.477-10 10s4.478 10 10 10c17.645 0 32-14.355 32-32v-8h66v8c0 6.617-5.383 12-12 12-5.522 0-10 4.477-10 10s4.478 10 10 10c17.645 0 32-14.355 32-32v-8h24c5.514 0 10 4.486 10 10v48h-304z" data-original="#000000" class="active-path" data-old_color="#000000" fill="#DC3545"/><path d="M341.076 249.06c-1.859-1.87-4.439-2.93-7.069-2.93s-5.21 1.06-7.07 2.93c-1.86 1.86-2.93 4.44-2.93 7.07s1.069 5.2 2.93 7.07c1.86 1.86 4.44 2.93 7.07 2.93s5.21-1.07 7.069-2.93c1.86-1.86 2.931-4.44 2.931-7.07s-1.07-5.21-2.931-7.07zM270.179 230H73.835c-5.522 0-10 4.477-10 10s4.478 10 10 10h196.344c5.522 0 10-4.477 10-10s-4.478-10-10-10zM270.179 286H73.835c-5.522 0-10 4.477-10 10s4.478 10 10 10h196.344c5.522 0 10-4.477 10-10s-4.478-10-10-10zM270.179 342H73.835c-5.522 0-10 4.477-10 10s4.478 10 10 10h196.344c5.522 0 10-4.477 10-10s-4.478-10-10-10zM270.179 174H117.674c-5.522 0-10 4.477-10 10s4.478 10 10 10h152.505c5.522 0 10-4.477 10-10s-4.478-10-10-10zM80.906 176.93a10.072 10.072 0 00-7.069-2.93c-2.641 0-5.21 1.07-7.07 2.93-1.86 1.86-2.93 4.44-2.93 7.07s1.069 5.21 2.93 7.07a10.058 10.058 0 007.07 2.93c2.63 0 5.21-1.07 7.069-2.93 1.86-1.86 2.931-4.44 2.931-7.07s-1.07-5.21-2.931-7.07zM491.002 130.32c-9.715-5.609-21.033-7.099-31.871-4.196-10.836 2.904-19.894 9.854-25.502 19.569L307.787 363.656a10.016 10.016 0 00-1.278 3.891l-8.858 79.344a10.004 10.004 0 009.937 11.11 9.99 9.99 0 005.931-1.948l64.284-47.344a9.983 9.983 0 002.73-3.052l125.841-217.963c11.58-20.056 4.684-45.794-15.372-57.374zM320.063 426.394l4.626-41.432 28.942 16.71-33.568 24.722zm48.15-39.398l-38.105-22 100.984-174.91 38.105 22-100.984 174.91zm120.841-209.303l-9.857 17.073-38.105-22 9.857-17.073a21.855 21.855 0 0113.358-10.25c5.678-1.522 11.605-.74 16.694 2.198s8.729 7.682 10.25 13.358a21.856 21.856 0 01-2.197 16.694z" data-original="#000000" class="active-path" data-old_color="#000000" fill="#DC3545"/></svg>