<svg xmlns="http://www.w3.org/2000/svg" viewBox="0 0 377 377" width="512" height="512"><path d="M141.41 147.539c-6.6 0-12.755 3.555-16.065 9.277a9 9 0 01-15.582-9.012c6.516-11.267 18.643-18.266 31.647-18.266 13.003 0 25.13 6.999 31.647 18.265a9 9 0 01-3.284 12.297 8.995 8.995 0 01-12.297-3.283c-3.31-5.724-9.467-9.278-16.066-9.278zm47.34 95.435c-6.6 0-12.756-3.555-16.066-9.277-2.489-4.303-7.995-5.774-12.297-3.285-4.303 2.488-5.773 7.994-3.285 12.297 6.516 11.267 18.643 18.266 31.648 18.266 13.003 0 25.13-6.999 31.647-18.265a9 9 0 00-3.284-12.297 9 9 0 00-12.297 3.283c-3.31 5.723-9.466 9.278-16.066 9.278zM377 155.254v41.042c0 15.308-12.045 28.204-27.353 28.204h-16.622c-5.459 17-14.122 33.459-25.788 48.17-19.169 24.173-45.547 41.731-74.881 50.584-1.319 14.808-13.791 26.247-28.931 26.247h-29.349c-16.017 0-29.048-12.982-29.048-28.999 0-16.021 13.031-29.001 29.048-29.001h29.349c10.542 0 19.79 5.802 24.881 14.228 55.474-17.164 93.58-68.237 93.58-127.003 0-57.195-36.252-106.083-86.987-124.889-13.186 16.208-29.765 29.692-48.292 39.227-21.189 10.903-45.068 16.667-69.054 16.667-2.783 0-5.617-.078-8.422-.232a9 9 0 01-8.495-9.478c.272-4.963 4.5-8.797 9.478-8.496 2.48.136 4.983.203 7.44.203 38.001 0 73.151-15.651 98.335-43.363a133.125 133.125 0 00-26.062-2.782 2.419 2.419 0 00-.211-.012c-.032.002-.07-.023-.103-.023-.069-.002-.148-.046-.217-.046h-.546C115.338 45.5 56 105.314 56 178.725v36.332c0 4.971-4.416 9.443-9.386 9.443H27.853C12.545 224.5 0 211.604 0 196.296v-41.042c0-12.095 7.786-22.718 19.323-26.432 4.732-1.527 9.837 1.076 11.36 5.809 1.523 4.73-1.1 9.802-5.832 11.325-4.007 1.29-6.852 5.113-6.852 9.298v41.042c0 5.382 4.47 10.204 9.853 10.204H38v-27.775C38 95.388 105.413 27.5 188.75 27.5h1.982c.034 0 .074-.002.108 0h.258c.033 0 .076.056.107.055.047.002.094.054.143.056.036-.001.08-.001.114.002.032 0 .076-.001.108.002.047-.001.098.002.147.002l.11.003.108.002c.045.001.106.004.153.003l.106.003.106.002c.046.003.103.002.149.004.036-.001.071.002.108.002.036.003.071.003.107.003l.146.004.108.003c.035.002.074.002.107.002.047.003.084.001.131.003.039.002.079 0 .119 0 .038.002.07-.004.11-.002.04.001.077-.015.117-.007.043.002.087-.023.131-.018.039.001.069-.041.11-.042.076.003.153-.081.229-.081h.128c13.752 1 27.309 2.961 40.374 7.104.183.058.363.268.54.337 60.779 19.586 104.871 76.798 104.871 144.005 0 9.278-.819 18.554-2.434 27.554h12.195c5.382 0 9.353-4.822 9.353-10.204v-41.042c0-4.185-2.646-8.008-6.653-9.298-4.731-1.523-7.179-6.594-5.656-11.325s6.492-7.33 11.223-5.81C369.452 132.537 377 143.159 377 155.254zM214.472 320.619a9.44 9.44 0 00-.215-2.009c-.02-.086-.038-.251-.055-.337-1.111-4.928-5.521-8.772-10.776-8.772h-29.349c-6.092 0-11.048 4.907-11.048 10.998 0 6.096 4.956 11.002 11.048 11.002h29.349c6.09-.001 11.046-4.79 11.046-10.882zM207.727 160.1c4.302 2.49 9.808 1.019 12.297-3.283 3.311-5.724 9.467-9.278 16.066-9.278s12.756 3.555 16.066 9.278a8.995 8.995 0 0012.297 3.283 9 9 0 003.284-12.297c-6.517-11.266-18.644-18.265-31.647-18.265s-25.13 6.999-31.647 18.265a9 9 0 003.284 12.297z" data-original="#000000" class="active-path" data-old_color="#000000" fill="#DC3545"/></svg>