<svg xmlns="http://www.w3.org/2000/svg" height="512" viewBox="0 0 64 64" width="512"><path d="M56.915 13.8A7 7 0 0060 8c0-3.859-3.14-7-7-7s-7 3.141-7 7a7 7 0 003.085 5.8C45.511 15.326 43 18.875 43 23v6c0 2.206 1.794 4 4 4v14.5c0 1.93 1.57 3.5 3.5 3.5.98 0 1.864-.407 2.5-1.058A3.485 3.485 0 0055.5 51c1.93 0 3.5-1.57 3.5-3.5V33c2.206 0 4-1.794 4-4v-6c0-4.125-2.511-7.674-6.085-9.2zM48 8c0-2.757 2.243-5 5-5s5 2.243 5 5-2.243 5-5 5-5-2.243-5-5zm13 21c0 1.103-.897 2-2 2v-9h-2v25.5c0 .827-.673 1.5-1.5 1.5s-1.5-.673-1.5-1.5V29h-2v18.5c0 .827-.673 1.5-1.5 1.5s-1.5-.673-1.5-1.5V22h-2v9c-1.103 0-2-.897-2-2v-6c0-4.411 3.589-8 8-8s8 3.589 8 8zM35.915 19.8A7 7 0 0039 14c0-3.859-3.14-7-7-7s-7 3.141-7 7a7 7 0 003.085 5.8C24.511 21.326 22 24.875 22 29v6c0 2.206 1.794 4 4 4v2h-1.583a7.041 7.041 0 00-3.131.739L18.764 43H17V33c2.206 0 4-1.794 4-4v-6c0-4.125-2.511-7.674-6.085-9.2A7 7 0 0018 8c0-3.859-3.14-7-7-7S4 4.141 4 8a7 7 0 003.085 5.8C3.511 15.326 1 18.875 1 23v6c0 2.206 1.794 4 4 4v8H1v18h16v-2h1.764l2.521 1.261c.967.483 2.05.739 3.132.739H26v.5c0 1.93 1.57 3.5 3.5 3.5.98 0 1.864-.407 2.5-1.058A3.485 3.485 0 0034.5 63c1.93 0 3.5-1.57 3.5-3.5V59h1c1.654 0 3-1.346 3-3a2.98 2.98 0 00-.78-2c.48-.532.78-1.229.78-2s-.301-1.468-.78-2c.48-.532.78-1.229.78-2s-.301-1.468-.78-2c.48-.532.78-1.229.78-2 0-1.654-1.346-3-3-3h-1v-2c2.206 0 4-1.794 4-4v-6c0-4.125-2.511-7.674-6.085-9.2zM27 14c0-2.757 2.243-5 5-5s5 2.243 5 5-2.243 5-5 5-5-2.243-5-5zm5.996 7.069C32.973 22.248 32.4 23 32 23s-.973-.752-.996-1.931c.327-.041.658-.069.996-.069s.669.028.996.069zM6 8c0-2.757 2.243-5 5-5s5 2.243 5 5-2.243 5-5 5-5-2.243-5-5zm5 49H3V43h8zm4 0h-2V43h2zm0-35v19h-3V27h-2v14H7V22H5v9c-1.103 0-2-.897-2-2v-6c0-4.411 3.589-8 8-8s8 3.589 8 8v6c0 1.103-.897 2-2 2v-9zm12.05 23.535A4.967 4.967 0 0123.515 47H23v2h.515c.864 0 1.701-.161 2.485-.459V57h-1.583a5.031 5.031 0 01-2.236-.528L19.236 55H17V45h2.236l2.944-1.472A5.032 5.032 0 0124.417 43H35c.551 0 1 .448 1 1v5a1.001 1.001 0 01-2 0v-4h-6.414zM30.78 54a2.976 2.976 0 00-.78 2c0 .883.391 1.67 1 2.22v1.28c0 .827-.673 1.5-1.5 1.5s-1.5-.673-1.5-1.5V47.368c.141-.118.281-.238.413-.368H32v2c0 .061.014.118.018.179A2.993 2.993 0 0030 52c0 .771.301 1.468.78 2zM36 59.5c0 .827-.673 1.5-1.5 1.5s-1.5-.673-1.5-1.5V59h3zm3-2.5h-6a1.001 1.001 0 010-2h6a1.001 1.001 0 010 2zm0-4h-6c-.551 0-1-.448-1-1 0-.485.353-.871.812-.962A2.984 2.984 0 0035 52c.883 0 1.67-.391 2.22-1H39a1.001 1.001 0 010 2zm0-4h-1v-2h1a1.001 1.001 0 010 2zm0-6a1.001 1.001 0 010 2h-1v-1c0-.352-.072-.686-.184-1zm1-8c0 1.103-.897 2-2 2V27h-2v14h-3v-6h-2v6h-3V27h-2v10c-1.103 0-2-.897-2-2v-6c0-3.366 2.092-6.247 5.042-7.426C29.247 23.533 30.466 25 32 25s2.753-1.467 2.958-3.426C37.908 22.753 40 25.634 40 29z" data-original="#000000" class="active-path" data-old_color="#000000" fill="#FFF"/></svg>