<svg xmlns="http://www.w3.org/2000/svg" height="512" viewBox="0 0 64 64" width="512"><path d="M9 49.184V36H7v13.184A2.996 2.996 0 005 52c0 1.654 1.346 3 3 3s3-1.346 3-3a2.996 2.996 0 00-2-2.816zM8 53a1 1 0 110-2 1 1 0 010 2zM14 36c-1.654 0-3 1.346-3 3 0 1.302.839 2.402 2 2.816V55h2V41.816A2.996 2.996 0 0017 39c0-1.654-1.346-3-3-3zm0 4a1 1 0 110-2 1 1 0 010 2zM53 49.184V36h-2v13.184A2.996 2.996 0 0049 52c0 1.654 1.346 3 3 3s3-1.346 3-3a2.996 2.996 0 00-2-2.816zM52 53a1 1 0 110-2 1 1 0 010 2zM58 36c-1.654 0-3 1.346-3 3 0 1.302.839 2.402 2 2.816V55h2V41.816A2.996 2.996 0 0061 39c0-1.654-1.346-3-3-3zm0 4a1 1 0 110-2 1 1 0 010 2z" data-original="#000000" class="active-path" data-old_color="#000000" fill="#FFF"/><path d="M44 33c-.395 0-.77.081-1.116.22A2.995 2.995 0 0040 31a2.98 2.98 0 00-2 .78 2.976 2.976 0 00-2-.78c-.352 0-.686.072-1 .184v-8.605c4.158-1.178 7.235-4.724 7.87-8.959l4.228 2.326C44.619 17.767 43 20.695 43 24c0 5.514 4.486 10 10 10s10-4.486 10-10-4.486-10-10-10a9.942 9.942 0 00-3.87.78l-6.161-3.389C42.651 5.61 37.86 1 32 1S21.349 5.61 21.031 11.392L14.87 14.78A9.939 9.939 0 0011 14C5.486 14 1 18.486 1 24s4.486 10 10 10 10-4.486 10-10c0-3.306-1.619-6.233-4.099-8.055l4.229-2.326c.635 4.239 3.71 7.783 7.871 8.961v18.433a3 3 0 01-.306 1.319l-.839-4.194a6.464 6.464 0 00-6.32-5.181 2.539 2.539 0 00-2.535 2.535c0 .502.147.988.426 1.406l1.029 1.544c.381.571.627 1.233.712 1.914l.692 5.533c.114.923.406 1.8.837 2.547L26 55.23V57h-2v6h22v-6h-2v-1.667l1.6-2.133A7.038 7.038 0 0047 49V36c0-1.654-1.346-3-3-3zm9-1a7.949 7.949 0 01-4.792-1.609C49.333 28.899 51.103 28 53 28s3.667.899 4.792 2.391A7.949 7.949 0 0153 32zm-3-9c0-1.654 1.346-3 3-3s3 1.346 3 3-1.346 3-3 3-3-1.346-3-3zm3-7c4.411 0 8 3.589 8 8a7.954 7.954 0 01-1.768 5.004 7.996 7.996 0 00-2.931-2.278C57.335 25.809 58 24.487 58 23c0-2.757-2.243-5-5-5s-5 2.243-5 5c0 1.487.665 2.809 1.699 3.726a8.007 8.007 0 00-2.931 2.278A7.954 7.954 0 0145 24c0-4.411 3.589-8 8-8zM11 32a7.949 7.949 0 01-4.792-1.609C7.333 28.899 9.103 28 11 28s3.667.899 4.792 2.391A7.949 7.949 0 0111 32zm-3-9c0-1.654 1.346-3 3-3s3 1.346 3 3-1.346 3-3 3-3-1.346-3-3zm11 1a7.954 7.954 0 01-1.768 5.004 7.996 7.996 0 00-2.931-2.278C15.335 25.809 16 24.487 16 23c0-2.757-2.243-5-5-5s-5 2.243-5 5c0 1.487.665 2.809 1.699 3.726a8.007 8.007 0 00-2.931 2.278A7.954 7.954 0 013 24c0-4.411 3.589-8 8-8s8 3.589 8 8zm4-12c0-4.963 4.037-9 9-9s9 4.037 9 9a8.981 8.981 0 01-1.842 5.432 7.964 7.964 0 00-3.844-3.717C36.34 12.799 37 11.481 37 10c0-2.757-2.243-5-5-5s-5 2.243-5 5c0 1.481.66 2.799 1.686 3.715a7.964 7.964 0 00-3.845 3.718A8.976 8.976 0 0123 12zm12-2c0 1.654-1.346 3-3 3s-3-1.346-3-3 1.346-3 3-3 3 1.346 3 3zm-8.638 9.003A5.966 5.966 0 0132 15a5.97 5.97 0 015.638 4.001 8.921 8.921 0 01-2.998 1.603C34.135 19.655 33.148 19 32 19s-2.135.655-2.639 1.604a8.93 8.93 0 01-2.999-1.601zM44 61H26v-2h18zm1-12a5.028 5.028 0 01-1 3l-2 2.667V57H28v-2.23l-3.536-7.267a4.938 4.938 0 01-.62-1.859l-.692-5.534a6.46 6.46 0 00-1.032-2.775l-1.03-1.545a.535.535 0 01.445-.832 4.459 4.459 0 014.359 3.573l1.286 6.427h2.438l.854-1.709c.345-.69.528-1.464.528-2.235V22a1 1 0 012 0v16h2v-4a1 1 0 012 0v4h2v-4a1 1 0 012 0v4h2v-2a1 1 0 012 0z" data-original="#000000" class="active-path" data-old_color="#000000" fill="#FFF"/></svg>