<svg xmlns="http://www.w3.org/2000/svg" viewBox="0 0 511.979 511.979" width="512" height="512"><path d="M509.975 155.484c-20.911-36.28-50.982-66.708-86.962-87.997-37.088-21.945-79.568-33.544-122.85-33.544s-85.762 11.599-122.851 33.544c-35.979 21.289-66.05 51.717-86.961 87.997a15 15 0 000 14.981c20.911 36.28 50.982 66.709 86.961 87.998 37.089 21.944 79.569 33.544 122.851 33.544s85.762-11.6 122.85-33.544c35.979-21.289 66.051-51.718 86.962-87.998a15 15 0 000-14.981zm-209.812 97.243c-49.272 0-89.359-40.263-89.359-89.752s40.087-89.751 89.359-89.751 89.359 40.262 89.359 89.751-40.086 89.752-89.359 89.752zm-179.294-89.752c21.996-34.765 53.363-61.937 89.635-78.957-18.478 21.094-29.7 48.734-29.7 78.957 0 30.224 11.223 57.863 29.7 78.958-36.271-17.021-67.639-44.193-89.635-78.958zm268.953 78.957c18.478-21.094 29.7-48.734 29.7-78.958 0-30.223-11.223-57.863-29.7-78.957 36.271 17.021 67.638 44.192 89.635 78.957-21.996 34.766-53.363 61.938-89.635 78.958zM84.983 240.859a14.999 14.999 0 00-25.976 0L9.684 326.24c-16.33 28.269-11.655 64.152 11.368 87.264h.001c13.604 13.654 31.695 21.175 50.941 21.175s37.338-7.521 50.942-21.175c23.023-23.111 27.698-58.996 11.368-87.264l-49.321-85.381zm-42.678 151.47c-13.474-13.524-16.206-34.531-6.645-51.084l36.334-62.896 36.334 62.896c9.562 16.553 6.829 37.559-6.645 51.084-7.934 7.963-18.478 12.349-29.689 12.349s-21.755-4.386-29.689-12.349zM229.898 339.036a14.999 14.999 0 00-25.976 0l-33.54 58.059c-12.188 21.099-8.698 47.881 8.486 65.13 10.158 10.196 23.668 15.812 38.042 15.812s27.884-5.615 38.042-15.812c17.184-17.249 20.674-44.031 8.486-65.129l-33.54-58.06zm3.8 102.014c-4.487 4.505-10.449 6.985-16.788 6.985s-12.301-2.48-16.788-6.985h-.001c-7.635-7.663-9.183-19.567-3.763-28.949l20.552-35.575 20.552 35.575c5.418 9.382 3.87 21.286-3.764 28.949z"/><path d="M300.163 120.821c-23.244 0-42.154 18.91-42.154 42.154s18.91 42.155 42.154 42.155 42.154-18.911 42.154-42.155-18.91-42.154-42.154-42.154zm0 54.309c-6.702 0-12.154-5.453-12.154-12.155s5.452-12.154 12.154-12.154 12.154 5.452 12.154 12.154-5.452 12.155-12.154 12.155z"/></svg>